<svg viewBox="0 0 749.1 496.69" xmlns="http://www.w3.org/2000/svg"><path d="m395.18 235.23c-11.75.27-23.52-.35-35.27 0-5.35.15-7.51-1.09-7.35-6.84.15-5.38.69-8.71 7.42-8.28 9.21.58 18.47.3 27.72.31 15.42 0 9.09-11.88 10.34-19.36 1.33-7.89-2.58-11.6-10.61-11.53-9.12.08-18.25-.58-27.35-.25-5.22.2-7.52-.78-7.6-6.65-.08-6.1 1.81-8 7.92-7.7 10 .45 20.21-.93 30.15.15 11 1.19 13.39-4.25 12.58-13.16-.75-8.18 4.3-19.76-11.73-19.27-19.62.6-39.27.59-58.9.33-9.25-.12-12.62 4-12.59 12.8.13 32.77.17 65.54-.15 98.3-.1 9.89 4.33 13.59 13.7 13.34 10.07-.27 20.15-.06 30.23-.06v-.13h31.5c15.23 0 9.29-11.75 10.59-19.32 1.39-8.12-1.31-12.91-10.6-12.68z" fill="#402377"/><path d="m502.48 232.33c-3.52-5.66-3.31-8.47 2.64-12.94 13.08-9.83 19.44-33.25 12.62-49.19-6.62-15.47-18.08-26.8-36.47-28.21-2.54-.19-6.11 1.74-7.39-2.5h-5.05c-5.89 4-11.78 3.89-17.68 0h-25.25c-2 3.78-7.74 4-7.8 10-.32 35.67-1.19 71.33-1.55 107-.05 4.92 1.1 9.95 7.65 11.34 19.61 4.17 26.78-1.5 26.65-21.49 0-3.36-.29-6.74 0-10.07.24-2.94-1.8-7.52 3.53-7.75 3.65-.15 7.72-2.06 10 4.16 2.88 7.75 7.95 14.67 12 22 8.28 14.91 23.21 20 38.63 13 4.57-2.07 4.5-5.12 2.18-9.11-4.99-8.72-9.41-17.75-14.71-26.24zm-37.68-35.81c-6.58.36-13.85 2.27-13.59-9.82.23-10.84 3.26-14.56 14-11.81 7.38.43 18.24-3 18.65 9.79.47 13.32-10.76 11.38-19.06 11.84z" fill="#402377"/><path d="m57.7 142.14c-5.53-.6-11.65 1.91-16.56-2.65h-5.06c-4.2 4.09-8.41 2.85-12.62 0h-15.16c-4.71 3.37-8.1 7-8 13.72.19 33.85.02 67.71-.3 101.57-.06 6.58 1.65 10.55 6.47 12.25 0-.2.09-.41.13-.61l.68.17-.18.63a15 15 0 0 0 1.66.4c.62-.47 1.41-.49 2.43.28.35 0 .69.06 1.06.07 17.93.66 19.33-.29 19.23-18.1 0-2.95.41-6 0-8.83-1.65-10.68 3.75-12.78 13-12a76.33 76.33 0 0 0 17.43-.36c-.07-.67-.16-1.39-.28-2.43.79.94 1.67 1.5 1 2.31a49.34 49.34 0 0 0 12.7-3.73c17.6-8 25.37-26.65 21.21-49-3.54-18.83-18.36-31.47-38.84-33.69zm-41.13 110.27c-.12-1.36-.12-1.36 3.79-1.09zm11.32 7.77-.54-.33c.26-.51.53-1 .8-1.52l.71.49c-.32.45-.64.91-.97 1.36zm-.38-37c-.06 0-.29-.53-.27-.54.55-.35 1.13-.66 1.7-1l.42 1.09c-.62.2-1.23.36-1.85.47zm17.27-25.45c-7.05.55-13.28.49-13.39-11.93-.13-14.55 9-11 16.56-11.29 8-.33 16.14.71 16 11.22-.12 11.57-8.76 12.51-19.17 12.02zm21.07 12.33c.24-1.14.49-2.37.75-3.61h4.27c.28 1.32.55 2.64 1 4.7-2.2-1.64-4.18 1.49-6.02-1.07zm5.84 15.77c-.07.05-.66-.37-.64-.54a3.79 3.79 0 0 1 .58-1.17c.4.42.82.72.77.85a1.91 1.91 0 0 1 -.71.88zm.44-1.7c-.68-1.06-1.4-1.78-1.26-2.05a9.86 9.86 0 0 1 1.76-1.91c.4.5 1.2 1.1 1.1 1.48a9.42 9.42 0 0 1 -1.6 2.5zm12-12.08a6 6 0 0 1 -.34-.82l1.69-.29c.05.19.1.38.16.58a14.26 14.26 0 0 1 -1.53.55zm3.11-4.31c-.28.82-.5 1.5-1 2.9-1-2.46-1-2.46.98-2.88zm-.47 4.7c0-.24-.08-.48-.13-.73l1.77-.37c0 .24.09.47.13.71zm2.59-.91c.07-1.67.12-2.66.18-4l2.51 1z" fill="#402377"/><path d="m270.74 142.14c-5.53-.6-11.66 1.91-16.57-2.65h-5c-4.21 4.09-8.42 2.85-12.63 0h-15.2c-4.72 3.37-8.11 7-8.06 13.72.24 33.85.07 67.71-.24 101.57-.08 8.74 3 12.87 12.24 13.21 17.92.66 19.33-.29 19.22-18.1 0-2.95.42-6 0-8.83-1.65-10.68 3.75-12.78 13-12 10.49.88 21.17.17 30.86-4.21 17.6-8 25.37-26.65 21.21-49-3.49-18.85-18.36-31.49-38.83-33.71zm3.26 27.59-.18 2.05h-1c0-.68-.07-1.37-.11-2.06zm-6.53-12-2.33 2.43c-.55-.72-.79-.89-.81-1.09-.22-1.71.67-1.9 3.12-1.38zm-9 4.43c-.3.71-.41 1.73-.95 2.07a9.79 9.79 0 0 1 -2.84.79c-.11 1-.21 1.89-.33 3-2.4-2.44-2.4-2.44-.56-5.7a24 24 0 0 1 2.82-.52 7.66 7.66 0 0 1 1.83.32zm-8-3.84c-.19-.32.26-1 .41-1.55l3 1.17c-1.79 1.67-2.77 1.47-3.45.34zm4.26-6.41c-.31 2.37-.31 2.37-7.84 3 1.73-3.8 5.29-1.75 7.8-3.04zm-10.15-2c.09-.34 1.29-.37 2.66-.71-.68 1.54-1 2.37-1.43 3.2h-1a6.94 6.94 0 0 1 -.27-2.57zm-12.1 1.51-3.39 7-4.91-3.9c3.25-.01 4.06-5.05 8.26-3.18zm-7.84-8.57a16.51 16.51 0 0 1 1.29 1.9c.06.12-.56.74-.6.72a6.13 6.13 0 0 1 -1.53-1.23c-.13-.18.37-.78.8-1.47zm15.53 36.1a7.09 7.09 0 0 1 -.32-.94l1.88-.58c.08.32.16.65.25 1a17 17 0 0 1 -1.85.44zm8.48 28.2c-.22-.2-.44-.4-.67-.59a2.64 2.64 0 0 1 3.17-2zm9.27-9.33c-7.08.55-13.35.54-13.46-11.9 0-.92 0-1.76.08-2.54a2.48 2.48 0 0 1 -.31.36c-1.55-1.61-1.58-2.94.52-4.81.1.5.21 1 .29 1.4a7.07 7.07 0 0 1 3.72-5c-1-.49-2-1-3-1.38a2.43 2.43 0 0 0 -1.76.05c-1.19.64-2.28 1.47-3.5 2.28l-2-1.5c.1 1.33.16 2.11.23 3l-3.27 1.22c.28.83.51 1.5.65 1.9l-2.89 5.63-5.6-3.88c.09-.26.35-1.07.63-1.93-.94-1.9-3.61-2.94-2.49-6 .65-1.82-1.84-1.5-3-2.08 2-2.24 3.2-2.23 6.26 0l1.19-2.42a22.88 22.88 0 0 1 7 1.52 10.06 10.06 0 0 0 9.55-.45c-.46-.68-.92-1.34-1.48-2.15l3.39-3.61 4.58 3-3.14 1.55c.21 1.32.36 2.26.52 3.21l1.9-.79a1.63 1.63 0 0 1 -.59 2c2.81-.28 6.06.2 9.06.08 8-.32 16.15.69 16 11.21-.14 11.48-8.75 12.46-19.12 11.95zm18.34-21.43c-.22-1.46-.4-2.69-.61-4.12 1.3-.58 2.05-.32 2.35 1.19.21 1.23 1 2.71-1.78 2.85zm24-9.42c-.19-.57-.38-1.15-.56-1.72l.71-.16a13.59 13.59 0 0 1 .45 1.54c-.01-.01-.41.14-.62.26z" fill="#402377"/><path d="m181.32 174.83c-.32-2.83-3.32-5.83-4.46-8.83l-.27-.53c-.61-1.23-1.21-2.42-1.79-3.56l-.27-.55c-1-.95-2.13-2-3.21-3.05a1.85 1.85 0 0 0 -.58 1.27l-.74-.25c-.33-.81-.67-1.63-1-2.44.28-.07.55-.16.83-.24-2-2.37-3.37-5.15-2.79-8.6a50.85 50.85 0 0 1 -7.46-.39h-28.75l-4.22 8.34a2.73 2.73 0 0 1 .62 1.45h6.2c-.48.86-.65 1.53-.91 1.57a46.43 46.43 0 0 0 -8.35 1.84l-6.9 13.72c.07.33.14.67.22 1l-.66-.14c-4.41 8.79-9 18-12.57 25l-1 2c-3.26 6.56-4.26 13.56-4.81 20.33v32.23c-1.42 11 6.58 10 15.26 11h19.62l16.1-23 15.6 23h21.83c4.17.94 8.17-3.06 12.6-.54v-.21a64.76 64.76 0 0 0 .56-10.55c0-.2 0-.4 0-.6v-42.03s-9.66-19.22-18.42-36.67c-.09-.19-.19-.4-.28-.57zm-10.75-2.83c1.33.46 1 1.46 0 3.4l-1.57-2.85c.53-.2 1.16-.7 1.57-.55zm-3.19-4.46h1.15c-.07.9-.13 1.8-.22 3.12-1.69-1.2-1.7-2.12-.93-3.13zm-6.52-12.83c.09.33.17.65.26 1-.66.14-1.33.29-2 .38a2.43 2.43 0 0 1 -.2-.63c.63-.3 1.29-.53 1.94-.76zm-20.14-2.71.79.71-1.76 1.79-.55-.48zm-11.13 26.86c.74 1.61 1.31 2.84 1.87 4.07l-.66.56-3.23-2.2zm-10.24-7c-.19-.34.46-1.13.73-1.71l.74.15c.25.87.49 1.75 1 3.44-1.32-.92-2.16-1.25-2.47-1.86zm38.7 37.19c-1.82-.37-1.46-2.42-1.74-4l4.3.79c-.61 1.55-.55 3.64-2.56 3.23zm-36.61 34.15h-.15v-25.72l18.36-36.55.27-.55c2.08-8.38 6.08-12.38 14.08-10.38a7.66 7.66 0 0 0 .34 2.07l.42.82 6.64 13.22zm55.75 0h-.05l-5.67-8.34-.39-.58a43.28 43.28 0 0 0 -3.42-3.87l-.35-.37c-4.31-3.04-5.31-7.04-1.01-11.04l.31-.44 6.46-9.23 4.12 8.18zm6.24-38.89c.34.73.76 1.26.64 1.47a2.79 2.79 0 0 1 -1.28 1.12c-.16.07-1-.78-.91-.85a15.63 15.63 0 0 1 1.55-1.72z" fill="#009c7c"/><path d="m312.33 98.2c-10.57 3.31-22.21 3-27.64-7.77-7.25-14.43-6.21-30.49.95-44.86 6.14-12.32 18.18-9.45 29-7.62 5.72 1 8.45-.65 9.3-6-.34.13-.67.27-1 .38a7.18 7.18 0 0 1 -.6-1.19l1.81-.78a1.1 1.1 0 0 0 0-.18c1.56-20 .77-22-15.48-28.67h-20.2c-.37 2.86-2.84 2.55-4.7 3.09-20.5 6-32.25 19.57-36.5 40.48a87.4 87.4 0 0 0 -1.51 15.65v.92c.13 5.37.13 10.37-.2 15.66v.93c-.06 26.09 17.72 53.29 49.16 53.77l-.6-.86 3.39-3.61 4.58 3-2.73 1.35c1.66-.11 3.35-.26 5.09-.52 20.72-3.1 20.62-1.87 21.35-23.25.36-11.38-3.64-13.01-13.47-9.92zm-60.33-24.29-.36-.79 1.83-.75c.13.31.26.62.38.93zm1.36-40.49c-.07 0-.79-.83-.7-1a2.79 2.79 0 0 1 1.25-1.13c.22-.09.69.42 1.36.86a15 15 0 0 1 -1.94 1.27zm5.55 71.58a4.71 4.71 0 0 1 -1.63-.19c.34-.56.56-1.31 1.06-1.62s1.15 0 1.74.06l.21.79a5 5 0 0 1 -1.38.96zm13.7 1.18c-.09-.1.41-.7.83-1.39a16.8 16.8 0 0 1 1.3 1.9c.05.12-.57.74-.61.72a6.26 6.26 0 0 1 -1.52-1.25zm5.28 14.19-4.9-3.9c3.29.06 4.1-5 8.3-3.11zm15.74-6a6.73 6.73 0 0 1 -.24-2.52c.09-.34 1.29-.37 2.66-.71l-1.43 3.2zm2.07 2.52c1.77-3.76 5.33-1.71 7.84-3-.31 2.35-.31 2.35-7.84 2.98zm3.57 3.41c-.19-.32.26-1 .42-1.55l3 1.17c-1.75 1.69-2.69 1.49-3.42.36zm7.07 5.91a9.76 9.76 0 0 1 -2.85.79c-.1 1-.2 1.89-.33 3-2.4-2.44-2.4-2.44-.55-5.7a23.86 23.86 0 0 1 2.81-.52 7.66 7.66 0 0 1 1.86.33c-.28.72-.4 1.74-.94 2.08zm7.63-4.07c-.56-.72-.79-.89-.82-1.09-.2-1.67.72-1.86 3.14-1.34z" fill="#402377"/><path d="m435 116.77c-9.41-17.72-18.54-35.62-28.69-52.91-3.71-6.32-2.8-10.33 1.29-15.43 8.38-10.46 16.74-21 24.37-32 5.9-8.43 3.76-11.43-6.38-12.43-17.68-1.77-32.25 1.63-40.25 19.86-2.44 5.56-7.27 10.14-13.26 18.14v-18.68c0-17.83-3-20.29-20.5-18.5-9.19.93-13.89 4.59-12.69 14.42.57 4.56.19 9.24.21 13.87.14 28.88-.2 57.77 2.48 86.58.47 5 .65 8.79 6.7 10.18 19.42 4.46 25.49-.38 24.59-20.12-.41-9.1-1.75-18.55 8.17-24.42 4.55 8.44 9.33 16.79 13.64 25.38 9.93 19.81 10.75 20.39 32.92 19.2 11.1-.6 12.69-3.26 7.4-13.14zm-86 12.12c-.18-.57-.37-1.15-.56-1.72l.71-.16a16.06 16.06 0 0 1 .46 1.54c.09.07-.32.22-.53.34z" fill="#402377"/><path d="m88.57 79.89a35.75 35.75 0 0 0 9.88-12.12c.15-.28.29-.57.44-.87a5 5 0 0 1 1.6-3.61c.12-.3.23-.61.35-.92 3.81-10.28 4.37-22.27.35-31.67-6.62-15.47-18.08-26.8-36.47-28.2-2.54-.2-6.1 1.74-7.39-2.5h-5a17.83 17.83 0 0 1 -4.11 2.11 2 2 0 0 1 .63 1.27c.26 1.31 1 2.79-1.74 2.93-.24-1.31-.41-2.45-.6-3.71-4 .91-7.94 0-11.9-2.6h-13.61l-.12.05c.22 1.32.37 2.26.52 3.21l1.91-.79c.69 2.27-1.71 2.14-2.46 3.43-1.4-.68-2.8-1.43-4.27-2a2.43 2.43 0 0 0 -1.78.1c-1.19.64-2.27 1.47-3.49 2.28l-2-1.5c.1 1.33.16 2.11.23 3l-3.24 1.22c.29.83.51 1.5.65 1.9l-2.88 5.66-2.58-1.78c-.34 34.07-1.14 68.13-1.49 102.22 0 4.92 1.1 10 7.65 11.34 19.61 4.17 26.79-1.5 26.65-21.49 0-3.36-.29-6.74 0-10.08.24-2.93-1.8-7.51 3.53-7.74 3.65-.16 7.73-2.06 10 4.15 2.88 7.75 8 14.68 12 22 8.28 14.92 23.21 20 38.63 13 4.57-2.07 4.5-5.13 2.18-9.11-5-8.67-9.46-17.69-14.75-26.19-3.48-5.7-3.27-8.52 2.68-12.99zm-77.57-71.02s-.2-.61-.31-.94l1.87-.58c.09.32.17.65.25 1a16.35 16.35 0 0 1 -1.81.52zm4 4.79c-1.55-1.61-1.58-2.94.52-4.81.48 2.06.96 3.44-.52 4.81zm4.42 23.41-.67-.59a2.63 2.63 0 0 1 3.17-2zm1.85-25.35c-.89-2-1.17-3 .21-3.35.42-.11 1 .41 1.52.64zm5.2 15.64c-.44-.69-.92-1.1-.87-1.43a1.59 1.59 0 0 1 .93-1c.24-.08 1 .53 1 .64a9.72 9.72 0 0 1 -1.02 1.79zm2.86-15.42c-.56-2.85-2.78-2.68-4.93-3l4-3.48c-.12 1.87 4.24 3.06.97 6.48zm3.31-2.34c1.9-1 2.83.41 3.89 1a2.23 2.23 0 0 1 -.35 1.81c-.82.38-1.39.15-.92-1.07.08-.17-1.57-1.04-2.62-1.74zm15.55 47.4c-6.62.37-13.68 2.12-13.56-9.88.12-11.14 3.91-13.94 13.91-12 7.61.63 18.46-2.75 18.82 10.06.36 13.35-10.87 11.39-19.17 11.82z" fill="#402377"/><path d="m17.58 1.28-.89-1.28h-7.34a6.51 6.51 0 0 1 -1.35 1.72 10.06 10.06 0 0 0 9.58-.44z" fill="#60575d"/><path d="m110.09 60.6c-4.89 7.4-2.89 13.4.82 19.08.1.16.19.33.28.5l8.88 15.93.31.56a40.56 40.56 0 0 1 3.12 3.89l4.26-1.86v-.14l-1.94-1.19c1.74-.52 3.41-1.3 5.83.62l-3.88.56.11.08-.17.07c-.65 1.65-1.3 3.34-2.06 5.29a59.79 59.79 0 0 1 4.85 10.93l.27.48c4.33 7.79 7.47 13.41 7.47 13.41h40.29c-.09-.37-.17-.74-.27-1.12h2.82v1.12h10.71c10.41 3.19 16.41-2.81 19.97-11.76l.28-.53 20.49-36.78c.16-.29.33-.58.48-.86 5.19-6.88 5.19-11.88-.2-19.32l-.52-1-12.66-22.83-1.4-2.51c-3-5.22-6-10.22-8.62-15.59l-1-1.73c-2.11-3.82-3.44-6.21-3.44-6.21h-11.55c-10.42 3.3-17.42 2.3-27.76 0h-1.74a22.47 22.47 0 0 1 -10 1.78l-.86-.05c-5-.42-10-3.42-15.34-2.27l-.09.16c-1.61.69-1.61 3.69-3.31 6l-.35.8c-.45 1.09-.86 2.2-1.32 3.37-.36.65-.73 1.33-1.12 2l-9.33 16.88c-.16.29-.32.57-.47.86-2.73 4.78-3.73 10.78-7.61 14.63l-.48.76q-1.19 1.91-2.5 3.74l-.4.71-.38.69zm56.23 46.32-4.24-2.52c1.64-.8 3.18-1 4.45.33.32.33-.11 1.38-.21 2.19zm17.05 8.43c1.34.21 2.25.65 2.51 1.33a22.1 22.1 0 0 1 1.24 5c0 .39-1 .91-2.15 1.9-.64-3.28-1.12-5.76-1.6-8.23zm-10.79-9.94c-1.37.73-2.4.75-3.28 0h-2.57l1.27-1.91-.08-.16.23-.06 22-33.85-23.5-36.34h24.77l3.94 7.13.29.5c1.13 1.9 2.16 4 3.24 6.06.13.27.27.54.41.8 1.82 7.11 5.57 12 9.81 17.73l.56.75c.53.94 1.53 1.94 1.52 3.8l-.15.27c-2.84 4.87-4.84 8.87-7.52 13.61-.12.2-.23.4-.34.6-1.78 3.2-3.64 6.53-5.33 9.58l-.42.75c-2.82 5.53-6.22 10.8-12.05 11 .1.91-.78 1.45-3 2.78.32-1.15.57-2.08.81-2.94l-.55-.09h-10.1zm-2.59 2c-.21 1.51-.61 2.9-3.06 2.26zm-8.19 12.07h6.2c.52-3.12 3-1.55 4.65-1.79l2.13 5.69c-.88.31-1.18.53-1.33.46a38.13 38.13 0 0 0 -10.75-2.84c-.26 0-.42-.68-.9-1.54zm-5.56-14.36c-.65-2.13.66-3.06 1.92-4.2l1.9 4.2zm-2.53 9.64.8-.71 1.52 2-.56.48c-.58-.6-1.17-1.2-1.76-1.79zm-.86-7.71c1.36.65 2.94.12 3.32 2.12-1.42-.04-3.07 1-3.32-2.17zm-1.78-3c.5-1.72.88-3 1.47-5.1 1.36 2.94 1.27 3.21-1.47 5.05zm-12.59-4a14.45 14.45 0 0 1 2.34-3.33c.17-.2.84 0 1.12 0-.38 2.11-.71 4-1.09 6.16-2.45-.98-2.97-1.45-2.37-2.88zm-4.38 17.66.27-1c.65.23 1.3.46 1.94.72a2.43 2.43 0 0 1 -.2.63c-.67-.06-1.34-.25-2.01-.39zm.07-10.71 2.57 1.29c-2.31.46-2.31.46-2.57-1.29zm-2.17-37.61 14-25.24 10 15.55.37.58c1.84 2.72 3.84 5.72 6.3 9.13 0 0-.06.09-.16.28a45.64 45.64 0 0 1 -7.25 10.47l-.39.59c-3.67 3.25-4.67 10.25-9.67 13.25 0-1 0-2-.71-2.14l-.49-.86z" fill="#009c7c"/><path d="m722.39 282.64c-10.34 1.44-5.7 11.12-6.23 17.51-1.17 14 1.31 28.19-1.49 42.17-1-.37-2.56-.6-2.73-1.21-4.63-16.13-12.52-30.92-19-46.29-5.68-13.5-17-16.55-30.53-10.09-5.33 2.55-10.47 2.25-10.51 10.51-.15 33.07-.84 66.15-1.75 99.21-.33 12.26 7.44 11.87 15.85 11.8 8.12-.07 16.39 1.28 16-11.39-.28-8.34-.31-16.68-.26-25l-.67.69c-.68.7-1.33 1.42-2 2.13l-.36-.27c.94-2.06 1.89-4.11 3-6.41l.1.11c0-6.44.11-12.88.11-19.35 3.52.54 3.8 2.57 4.4 4.66 4.52 15.63 9.23 31.2 15.86 46.1 1.47 3.3 2.38 7 6.71 8.38 23.55 7.67 36.32-1 37.22-25.61.22-5.87-.06-11.79.6-17.6.37-3.32-2.44-7.69 2.47-9.93v-60.64c-5.26-13.44-17.08-10.83-26.79-9.48zm-54.63 90.28-3.3-.16c-.09-3 0-3 2.16-2.5 1.13.27 2.29.46 3.61.72.16 1.78.31 3.46.47 5.26-1.85-.34-1.51-2.32-2.94-3.32zm7.48 7.09c-1.23-2-1.23-2 1.17-3.18.87 1.56.27 2.49-1.17 3.17zm2.09 5.8c-1-1.62-.45-3 .73-4.51 1.79 2.99 1.79 2.99-.73 4.51zm2.67-18.81a16.51 16.51 0 0 1 -1.18 1.87c-1.53-2.16-2.83-4-4.28-6 .23-.71.57-1.78.93-2.86 2.35 1.07 2.72 1.9 2.44 5.53h2.33a6.72 6.72 0 0 1 -.24 1.46zm23.76 24-.3-.66 1.57-.74.33.72zm8.54 9.35a2.24 2.24 0 0 1 -1.9-.16 22.82 22.82 0 0 1 -2.68-2.31l4.13-2.56a28.16 28.16 0 0 1 .81 3.29c.06.58-.03 1.55-.37 1.74zm2.21-54.88c.07-.66.17-1.32.26-2 .09.71.17 1.41.26 2.11a4.24 4.24 0 0 1 -.53-.11zm3.4 55.92-.56-.12c.13-.62.26-1.23.38-1.85l.68.17c-.18.6-.34 1.2-.51 1.8zm2.39 6.05c-.29-1.86-.29-1.86 1.83-1.66zm.83-3.93c-.61-.23-1.25-.3-1.57-.65a1.63 1.63 0 0 1 -.35-1.45c.69-1.13 1.68-1.6 3.12-.51-.33.79-.75 1.59-1.21 2.61zm6.58-18.1c-.12-1.36-.12-1.36 3.78-1.09zm11.29 7.77-.55-.33.81-1.52.7.49zm-.39-37c-.06 0-.28-.53-.27-.54.56-.35 1.13-.66 1.7-1l.42 1.09c-.59.2-1.21.36-1.83.47z" fill="#402377"/><path d="m625.35 279.49h-20.2c-4.44 5-4.82 11.12-4.74 17.43.25 20.57.64 41.14.41 61.71-.14 12.4-5.48 17.5-16.37 17.1-11.28-.42-15-7.34-15-17.55-.15-20.13-.14-40.26-.66-60.39-.26-9.77-3.45-14.88-11.58-18.3h-12.67c-8.17 3.05-10.12 9.09-9.75 17.39 1.05 23.07 1.27 46.18 2.09 69.27.84 23.92 12.37 37.6 35.56 41.51a92.42 92.42 0 0 0 31.39-.2c17.12-3 28-15.42 29.41-32.91 2.09-25.95 1.9-52 2.09-78 .05-8.05-1.81-14.19-9.98-17.06z" fill="#402377"/><path d="m68.9 334.36c-1-.53-2-1-3-1.45-.44.11-.87.21-1.32.29-.06 0-.28-.53-.27-.54l.44-.25c-6.36-2.67-13-4-19.61-6-2.13-.65-5.4-1.22-5.32-4.45.09-3.81 3.24-4.36 6.23-4.71a61.54 61.54 0 0 1 26 2.72c1.74 1.6 3.5 4.36 5.13-.08 1.4-.27 2.73-.6 2.62-2.47.63-.25 1.75-.44 1.8-.77.21-1.52-.87-1.56-2-1.32l-.42-.24c-.07-3.45 1.5-7-.43-10.35 3.79-16.14-8.24-20.27-19.17-25.24h-25.18c-.5.61-.9 1.58-1.52 1.77q-29.88 8.73-30.82 37.51c-.3 10 1.43 18 5.48 24.37l.09-.18 1.84 2-.36.37c4.83 6.3 12.24 10.9 22.55 14.2 4.76 1.52 9.68 2.5 14.52 3.76 3.34.87 7.42 2.17 7.17 5.88-.23 3.36-4 5.24-7.56 5.59-2.41.24-4.81.4-7.2.46 0 .11 0 .22.06.33.07.58 0 1.55-.36 1.74a2.24 2.24 0 0 1 -1.9-.16 16.2 16.2 0 0 1 -2.27-1.94 50 50 0 0 1 -10.12-1.31l-.42.57-.66-.63.17-.16a38.62 38.62 0 0 1 -12.2-5.67c-5.93-4.13-9.43-3.34-10 4.18-.38 5.47-.58 11-.73 16.44a3.48 3.48 0 0 1 1.1 1.83 4.72 4.72 0 0 1 -1.16 0c0 1.89-.09 3.79-.14 5.68-.19 7.34 3.08 11.64 10.71 12.84 15.3 2.41 30.58 3.14 45.82.46l.57-.34a1.74 1.74 0 0 1 0 .22c.79-.14 1.59-.29 2.38-.45 1.09-.22 2.15-.47 3.19-.75a5 5 0 0 1 -.26-3.18c.55.85.94 1.45 1.33 2.07a9.31 9.31 0 0 1 2.69 0c.86-.3 1.72-.61 2.54-.95l-2-.22v-2.69c-.85 1-1.38 1.69-1.94 2.38-2.12-.36-2.46-1.79-2.29-3.66-3.15.93-2.57 4-3.95 6h-2.75c1-2.09-1.78-3.94.16-6.18-1-.48-1.69-1.13-2.41-1.13-3.57 0-3.57.06-6-1.06a7.6 7.6 0 0 1 -.12-1 12.51 12.51 0 0 1 .17-1.36l2.65 1.33c1-.51-.15-3 2.25-2.34.07.62.14 1.26.21 1.94l5 1.46 1.25-2 .6.14v3.11c1.52-1.43 1.52-1.43.5-4l3.88-1.29 2.53 1.08c-.08 1.4-.16 2.93-.25 4.55l4.54 4.1c.81-.38 1.59-.79 2.35-1.21a3.1 3.1 0 0 1 -.46-1.94c0-.32.89-.89 1.32-.84.93.12 1.83.31 2.7.5.41-.31.81-.62 1.2-.94l-1.08-.3c.37-.94.61-1.55 1-2.41l1.38 1.63a31.11 31.11 0 0 0 8.54-13.11 6.62 6.62 0 0 1 -2.12.28c-.39 0-.7-1-1-1.52.44-.25 1-.82 1.29-.7 1.06.45.78-.39 1-.82a25.23 25.23 0 0 1 1.67-2.13c.13.23.25.44.36.65.3-1.3.56-2.64.75-4 2.68-20.83-4.32-35.02-20.96-43.99zm-30.9 63.57-1.57-1.33.55-.71 2.31.22zm4.73-3.93c-.62.76-.64.75-2.47 1l2.25-1.91c.13.54.29.82.22.91zm1.17-15.61-.56-.12c.13-.62.26-1.23.38-1.85l.68.17c-.17.6-.33 1.2-.5 1.8zm2.39 6.05c-.29-1.86-.29-1.86 1.83-1.66zm.83-3.93c-.61-.23-1.25-.3-1.57-.65a1.63 1.63 0 0 1 -.35-1.45c.69-1.13 1.68-1.6 3.12-.51-.32.79-.74 1.59-1.2 2.61zm6.58-18.1c-.12-1.36-.12-1.36 3.78-1.09zm7.56 24.82c-.27-1.53-.49-2.82-.72-4.11l1-.13c-.07 1.32 2.05 2.5-.28 4.24zm3.74-17.05-.55-.33.81-1.52.7.49zm2.43 29.82 2.81-.88c-.39 1.65-1.02 2.94-2.81.88zm8.91-15 1.43 2.47-.39.58c-.58-.23-1.34-.31-1.71-.73-.67-.8-.62-1.67.67-2.32zm-.1 8.83c-.08-1.07-.15-1.93-.26-3.42l2.58 2.39zm1.43-49.63a3.78 3.78 0 0 1 -.6-1c.3-.11.64-.37.88-.29s.4.46.66.8c-.4.29-.84.58-.94.5zm7.77 46.25c-1.89.22-2.59-.57-2.68-1.86 0-.36.64-.78 1-1.17.16.35.29.72.47 1.05.33.59.69 1.16 1.21 1.99zm.56-32.45c.36 0 .68.36 1.17.65-.45.38-.77.8-.92.75a3.53 3.53 0 0 1 -.91-.75c.22-.2.47-.65.66-.65zm2.21 8-2.21 2.26c-.7-2.72-.7-2.72 2.21-2.26zm-6.43-9.37c.23 0 .67.49.63.68-.21 1.06-.8 1.58-2 1-.19-1.1.24-1.7 1.37-1.66zm1.81 16.6c4.26 1 5.21 4.44 1.76 8.25l-5.41-2.78z" fill="#402377"/><path d="m408 280.27c-.9-.12-1.62-1.48-2.42-2.27h-2.58c-.41 2-1.84 2.5-3.65 2.5-14.72.07-29.44.22-44.16.19-8.46 0-16.15-.11-16 12 .07 7.86.21 12.87 1.26 16l1.82-.57c-.24 1-.59 1.9-1.25 1.91a6.31 6.31 0 0 0 4.85 3.31 5.4 5.4 0 0 1 -.47-.3 2.8 2.8 0 0 1 -.6-2.09c0-.32.89-.89 1.32-.84 1.58.2 3.13.61 4.43.88.15 1 .49 1.94.54 2.71 1 0 2.16 0 3.38-.07 9.13-.36 12.65 2.24 12.53 11.77-.29 22.7.82 45.42.42 68.12-.23 13.33 7.44 13.29 17.2 13.37 10.06.1 16.25-2.05 16-13.75-.55-21.44.66-43-1.14-64.31-1.07-12.75 1.28-17.88 14.5-15.44 5.38 1 9.71-.29 11.32-6.77 3.55-14.55-2.71-24.31-17.3-26.35zm-59.66 13.73 1.43 2.47-.39.58c-.58-.23-1.34-.31-1.71-.73-.67-.8-.62-1.67.67-2.32zm-.36 5.41 2.58 2.39-2.32 1c-.08-1.03-.15-1.89-.24-3.38zm.93 10c.37-.94.61-1.55 1-2.41l2.94 3.46zm3-21.69 3.65-5.47c4.26 1 5.21 4.44 1.76 8.25zm2.82 9.88c0-.36.64-.78 1-1.17.16.35.29.72.47 1.05.34.58.7 1.15 1.22 2-1.87.2-2.57-.59-2.66-1.88zm8.56 10.64c-.21-2.17-.33-3.51-.47-4.94 1.81 1.38 1.93 2.07.5 4.94zm.37-11.75c-.42.66-1.43.93-2.19 1.37l.05.1-.08-.08.08.08h-.09c-.13 2.43-.15 2.43-2.33 2.17 0-1.63.94-2.12 2.33-2.17v-.08l-1.12-2.47a9.36 9.36 0 0 1 -2.71.41c-.39 0-.7-1-1.05-1.52.44-.25 1-.82 1.29-.7 1.06.45.78-.39 1-.82a25.23 25.23 0 0 1 1.67-2.13c.8 1.43 1.35 2.4 2.32 4.15.12-1.35.17-2 .23-2.58s-.07-1.28.17-1.41a4.1 4.1 0 0 1 1.7-.13h2.19c.88 3.06-2.2 3.91-3.43 5.81z" fill="#402377"/><path d="m201.22 293.94c0-6.91-3-10-9.62-10.39-4.61-.25-9.21-.73-13.82-.87-6.56-.19-10.15 2.43-9.77 9.72.51 9.55-2.39 19.07-.19 28.7.6 2.63 1.08 5.28-3.51 6.32-20.6 4.64-27.33-.51-27.19-21.67.17-24.09 0-23.88-23.32-23.74-8.35.05-11.31 2.91-11.21 10.86.21 17.21.06 34.42.06 51.63h1v2.49l.69-1 .71.53c-.33.62-.16 1.63-1.4 1.84 0 15.07.32 30.14-.19 45.18-.21 6.23.43 11.94 7.12 12.1 8.76.22 18.18 5.79 26.28-1.5 1.4-1.26 1.06-4.74 1.07-7.19 0-9.66-.29-19.32-.21-29 0-2.7-1.4-7.35 2.06-7.64 8.74-.75 18-1.77 26.25.5 5.52 1.52 1.69 9.61 2.22 14.71a102.69 102.69 0 0 1 .09 16.36c-.44 8.51.61 14.71 11.75 14.63 18.58-.12 20.89-.82 21-14.32.32-32.75-.03-65.5.13-98.25zm-98.22 26.14.76-3.61h4.24l1 4.7c-2.2-1.66-4.19 1.47-6-1.09zm5.85 15.77c-.07 0-.67-.37-.65-.54a4.1 4.1 0 0 1 .59-1.17c.39.42.81.72.77.85a1.91 1.91 0 0 1 -.74.86zm.43-1.7c-.67-1.06-1.39-1.78-1.25-2a9.56 9.56 0 0 1 1.76-1.91c.39.5 1.19 1.1 1.1 1.48a9.51 9.51 0 0 1 -1.64 2.43zm5.28 10-.72-.58 1.18-1.4.61.44zm8-23.16c.06.19.11.38.17.58a14.42 14.42 0 0 1 -1.52.53 5.17 5.17 0 0 1 -.33-.82zm0 26.75-2.21-.44.27-1.07 2.14.65c-.03.25-.1.54-.17.83zm-1.08-3.59v.1h-.13c-.53 1.18-1.37 1.34-2.41.56s-.9-1.17 0-2.74c1.32.11.69 2.58 2.43 2.18a.93.93 0 0 0 .05-.1s0 0 .08 0c-.1-1.11-.15-2.2 1.68-2.86-.43 1.32-.37 2.43-1.67 2.83zm2.83-26.36c-.27.82-.49 1.5-1 2.9-.95-2.51-.95-2.51 1.03-2.93zm-.46 4.7c0-.24-.09-.48-.13-.73l1.76-.37c0 .24.09.47.14.71zm2.59-.91c.07-1.67.11-2.66.18-4l2.5 1z" fill="#402377"/><path d="m523 365.66.33-.05c-.89-11.66 1.85-25.58-3.62-34.41-6.69-10.81-21.68-2.81-33-3.47-17.66-1-18.2 1-17.11 18.39.66 10.7 5.88 12.63 14.7 11.29 5.95-.9 7.13 2.26 6.68 7.39a43 43 0 0 1 -.36 4.42c1.18.74 2 1.24 2.94 1.87l-1.82 1.07-1.2-2.58c-.5 1.91-1.8 3.3-5.61 3.63-15.57 1.39-25.16-5.68-26.13-21.39a127.3 127.3 0 0 1 1-21.35c1.37-12.68 9.1-18.08 21.48-17.78 9.67.24 19.35.11 29 .45 10.41.37 11.33-6.17 10.92-14.09s1.51-17.06-11.2-16.64c-13.32.45-26.67.35-40 1.25-22.05 1.49-34.26 11.69-41.38 32.43-3.39 9.88-2.78 20-2.43 29.87 1.18 33.16 10.18 63.77 58.5 60.4 2.51-.17 5 .1 7.57 0 29.27-1.26 33.88 6.83 30.68-30.72-.18-3.31.06-6.64.06-9.98zm-64.2 33.78c-.49-.12-1-1-1.11-1.57-.05-.26.86-1.05 1.23-1 .57.09 1.06.71 2 1.38-1 .6-1.66 1.3-2.11 1.19zm50.44 6.47-.36-.79 1.83-.75c.13.31.26.62.38.93zm1.36-40.49c-.08 0-.79-.83-.7-1a2.79 2.79 0 0 1 1.25-1.13c.22-.09.69.42 1.36.86a15 15 0 0 1 -1.9 1.27z" fill="#402377"/><g fill="#009c7c"><path d="m339.15 366.21v-41.46l-1.73-1.94c-1.46 1.27-3.32 1.54-5.28 1.7l-.89-1.61a20.75 20.75 0 0 0 2.25-.18 6.82 6.82 0 0 0 2.4-.7 2.49 2.49 0 0 0 .46-.4l-1-1.1-.65-.74c-1.2-1.27-2.34-2.56-3.45-3.86a4.79 4.79 0 0 1 -.47.86h-2.79a3.2 3.2 0 0 0 -.11-2.59 15.31 15.31 0 0 1 -6-4.92 13.54 13.54 0 0 1 -2.18-.86 7.6 7.6 0 0 1 -.12-1 12.51 12.51 0 0 1 .17-1.36l.33.16a30.85 30.85 0 0 1 -1.81-4.94l-.47-.54c-7.3-8.22-13.67-15.37-13.67-15.37h-27.55c-10.44-2.36-24.44-3.36-31 2.33l-.51.58-26 29.18-.33.4c-6.58 5.15-5.58 12.15-6.16 20v3.54a49.56 49.56 0 0 0 0 20.44v10.23s5.56 6.24 12.24 13.76l.47.52c3.87 4.64 9.87 8.64 13.26 14.9l.42.48 8.66 9.73h45.95c6.58.53 12.58-3.47 17.93-8.32l.41-.46 18.66-21 .37-.42c3.21-4.3 9.21-8.3 8.21-14.15zm-30.15-61.32 2.31.22-1.31 1.82-1.57-1.33zm-35.66-5.43c-1.91.14-2.49-.52-2.62-2 1.51-.33 2.05.42 2.59 2zm40.92 36.54h-5.43-.63c-5.05 0-11.05-2-13.05 1-3 2-1 8-1 13.45v1 3.82 1.18 4.44h20.17v1.74l-21.33 24h-4.69v-5c-.15-3.6-.15-8.6-.15-12.6-5 3-10 0-15.14-.1h-9.59v17.68h-4.63l-21.33-24v-1.74h3.68c6 .14 11-1.86 17-.86a67.38 67.38 0 0 0 -.52-10.15v-13.86h-20.16v-1.75l12.07-13.57.47-.52a19.77 19.77 0 0 0 2.63-3.57l-1.94-4.16a37.46 37.46 0 0 1 3.37-2.26 2.11 2.11 0 0 1 2.78.61 4.29 4.29 0 0 1 2.58-1.11l.33-.75c.12.3.22.55.3.77a6.64 6.64 0 0 1 3.1 1.34c1 1 0 5 .27 8.09v8.84h9.58c5.14.07 11.14 2.07 14.14-.93 2-1 1-7 .79-10.52 0-.3 0-.6 0-.89a9.91 9.91 0 0 1 1.23-5.59c0-1 4 0 5.54 2.22l.58.66 19 21.34zm.47-33c-.62.76-.64.75-2.47 1l2.25-1.91c.13.54.29.82.22.91zm15 18.07v-.17l-1.61.72v-3l1-.6.6 2.84 1-.44z"/><path d="m.92 483.46a1.39 1.39 0 0 1 -.43-1v-37.75a1.49 1.49 0 0 1 .41-1.08 1.37 1.37 0 0 1 1-.44h16.5q7.56 0 11.86 3.43t4.31 10.07q0 6.62-4.31 9.91t-11.86 3.29h-6.63v12.56a1.45 1.45 0 0 1 -.41 1 1.37 1.37 0 0 1 -1 .44h-8.42a1.42 1.42 0 0 1 -1.02-.43zm17.19-21.89a5.36 5.36 0 0 0 3.75-1.25 4.76 4.76 0 0 0 1.37-3.69 5.3 5.3 0 0 0 -1.23-3.63 5 5 0 0 0 -3.87-1.39h-6.53v10z"/><path d="m43.78 480.47q-4.74-4-5-11.75c0-1-.06-2.75-.06-5.11s0-4.15.06-5.24q.28-7.56 5.09-11.66t13-4.1a24 24 0 0 1 9.27 1.69 14.94 14.94 0 0 1 6.49 4.88 13 13 0 0 1 2.5 7.56 1.17 1.17 0 0 1 -.38.88 1.28 1.28 0 0 1 -.9.34h-8.29a1.78 1.78 0 0 1 -1.19-.32 2.55 2.55 0 0 1 -.67-1.19 7 7 0 0 0 -2.47-4 7.62 7.62 0 0 0 -4.39-1.13q-6.57 0-6.81 7.32-.06 1.57-.06 4.83c0 2.17 0 3.82.06 4.94q.24 7.33 6.81 7.33a7.73 7.73 0 0 0 4.39-1.16 6.72 6.72 0 0 0 2.47-4 2.17 2.17 0 0 1 .64-1.19 2 2 0 0 1 1.22-.32h8.26a1.29 1.29 0 0 1 .9.35 1.14 1.14 0 0 1 .38.87 12.9 12.9 0 0 1 -2.5 7.56 15 15 0 0 1 -6.49 4.89 24.24 24.24 0 0 1 -9.27 1.68q-8.32.06-13.06-3.95z"/><path d="m97.08 480.38q-4.77-4.1-5.06-11.72c0-1.08-.06-2.84-.06-5.29s0-4.22.06-5.35q.23-7.32 5.09-11.37t13.17-4a24.19 24.19 0 0 1 9.74 1.81 15.72 15.72 0 0 1 6.34 4.62 10.08 10.08 0 0 1 2.29 5.78 1.26 1.26 0 0 1 -1.28 1.28h-9a1.62 1.62 0 0 1 -.9-.2 2.35 2.35 0 0 1 -.61-.61 6.82 6.82 0 0 0 -2.24-2.79 7 7 0 0 0 -4.33-1.16q-6.75 0-7 7c0 1.09-.06 2.76-.06 5s0 3.94.06 5.06q.23 7.39 7.09 7.39a7.93 7.93 0 0 0 5.35-1.69 6.34 6.34 0 0 0 2-5.11v-1h-5.17a1.5 1.5 0 0 1 -1.56-1.63v-4.54a1.49 1.49 0 0 1 .44-1.08 1.46 1.46 0 0 1 1.08-.43h14.77a1.46 1.46 0 0 1 1.07.43 1.49 1.49 0 0 1 .44 1.08v6.75a15.46 15.46 0 0 1 -2.3 8.52 14.65 14.65 0 0 1 -6.48 5.46 23.56 23.56 0 0 1 -9.77 1.89q-8.4 0-13.17-4.1z"/><path d="m138.16 483.29a9.52 9.52 0 0 1 -3.95-3.29 8 8 0 0 1 -1.43-4.59 7.69 7.69 0 0 1 3.29-6.43 20.37 20.37 0 0 1 9-3.4l7.21-1.1v-.7a4.69 4.69 0 0 0 -.87-3.14 3.79 3.79 0 0 0 -3-1 4.26 4.26 0 0 0 -1.95.41 10.72 10.72 0 0 0 -1.77 1.22 6.55 6.55 0 0 1 -1.34.93.68.68 0 0 1 -.58.41h-6.67a1.3 1.3 0 0 1 -1-.38 1 1 0 0 1 -.32-.9 6.37 6.37 0 0 1 1.57-3.52 11.81 11.81 0 0 1 4.59-3.34 18.42 18.42 0 0 1 7.62-1.4q7.2 0 10.7 3.17a11 11 0 0 1 3.49 8.58v17.62a1.45 1.45 0 0 1 -.41 1 1.37 1.37 0 0 1 -1 .44h-7.15a1.4 1.4 0 0 1 -1-.44 1.39 1.39 0 0 1 -.43-1v-2a9.53 9.53 0 0 1 -3.55 2.94 12 12 0 0 1 -5.41 1.13 13.09 13.09 0 0 1 -5.64-1.22zm12.68-7.36a6.85 6.85 0 0 0 1.6-4.88v-.7l-4.83.81c-3.26.63-4.88 1.79-4.88 3.49a2.53 2.53 0 0 0 1.13 2.16 4.7 4.7 0 0 0 2.82.81 5.46 5.46 0 0 0 4.16-1.69z"/><path d="m169.56 483.46a1.39 1.39 0 0 1 -.43-1v-27.35a1.36 1.36 0 0 1 .43-1 1.45 1.45 0 0 1 1-.41h6.74a1.4 1.4 0 0 1 1.46 1.45v2a11.78 11.78 0 0 1 3.6-2.85 10.67 10.67 0 0 1 5-1.16q6.39 0 8.78 5a10.66 10.66 0 0 1 3.89-3.6 10.82 10.82 0 0 1 5.35-1.4 10.13 10.13 0 0 1 7.77 3.23q3 3.22 3 9.62v16.52a1.45 1.45 0 0 1 -.41 1 1.37 1.37 0 0 1 -1 .44h-7.16a1.52 1.52 0 0 1 -1.07-.41 1.37 1.37 0 0 1 -.44-1v-16.2a5.78 5.78 0 0 0 -1.13-3.93 4 4 0 0 0 -3.06-1.25 3.77 3.77 0 0 0 -2.93 1.25 5.73 5.73 0 0 0 -1.14 3.93v16.11a1.44 1.44 0 0 1 -.4 1 1.37 1.37 0 0 1 -1 .44h-7.15a1.53 1.53 0 0 1 -1.08-.41 1.36 1.36 0 0 1 -.43-1v-16.14a5.63 5.63 0 0 0 -1.17-3.93 4.21 4.21 0 0 0 -6 0 5.58 5.58 0 0 0 -1.16 3.87v16.17a1.45 1.45 0 0 1 -.41 1 1.37 1.37 0 0 1 -1 .44h-7.33a1.4 1.4 0 0 1 -1.12-.43z"/><path d="m222.92 449a1.49 1.49 0 0 1 -.41-1.08v-5.41a1.46 1.46 0 0 1 .43-1.07 1.42 1.42 0 0 1 1-.44h7.27a1.47 1.47 0 0 1 1.08.44 1.46 1.46 0 0 1 .43 1.07v5.49a1.47 1.47 0 0 1 -1.51 1.51h-7.21a1.36 1.36 0 0 1 -1.08-.51zm0 34.42a1.39 1.39 0 0 1 -.43-1v-27.31a1.36 1.36 0 0 1 .43-1 1.47 1.47 0 0 1 1-.41h7.27a1.53 1.53 0 0 1 1.08.41 1.36 1.36 0 0 1 .43 1v27.34a1.36 1.36 0 0 1 -.43 1 1.53 1.53 0 0 1 -1.08.41h-7.19a1.42 1.42 0 0 1 -1.06-.4z"/><path d="m239.81 483.46a1.4 1.4 0 0 1 -.44-1v-27.35a1.37 1.37 0 0 1 .44-1 1.45 1.45 0 0 1 1-.41h7.19a1.46 1.46 0 0 1 1.05.41 1.41 1.41 0 0 1 .4 1v2.21a11.64 11.64 0 0 1 4-3.08 13.26 13.26 0 0 1 5.67-1.16 11.5 11.5 0 0 1 5.91 1.51 10.46 10.46 0 0 1 4.07 4.48 15.83 15.83 0 0 1 1.48 7.15v16.23a1.45 1.45 0 0 1 -.41 1 1.37 1.37 0 0 1 -1 .44h-7.74a1.5 1.5 0 0 1 -1.07-.41 1.37 1.37 0 0 1 -.44-1v-15.91a5.84 5.84 0 0 0 -1.25-4 4.63 4.63 0 0 0 -3.63-1.4 4.78 4.78 0 0 0 -3.67 1.43 5.6 5.6 0 0 0 -1.34 4v15.88a1.44 1.44 0 0 1 -.4 1 1.37 1.37 0 0 1 -1.05.44h-7.73a1.4 1.4 0 0 1 -1.04-.46z"/><path d="m283 494.89a12.65 12.65 0 0 1 -5-4.16 7.88 7.88 0 0 1 -1.51-3.92 1.27 1.27 0 0 1 .47-1 1.56 1.56 0 0 1 1-.41h7.8a1.55 1.55 0 0 1 .93.26 2.48 2.48 0 0 1 .64.9 5.08 5.08 0 0 0 1.51 2 4.68 4.68 0 0 0 2.91.73 5 5 0 0 0 3.72-1.25 5.86 5.86 0 0 0 1.22-4.16v-3.88a11.15 11.15 0 0 1 -8.43 3.2q-5.88 0-9-3.4t-3.4-10l-.06-1.57q0-7.09 3.17-11.11t9.28-4a11.63 11.63 0 0 1 5.23 1.13 11.1 11.1 0 0 1 3.78 3.06v-2.1a1.52 1.52 0 0 1 .41-1.07 1.37 1.37 0 0 1 1-.44h7.1a1.49 1.49 0 0 1 1.08.44 1.46 1.46 0 0 1 .43 1.07v27.79q0 6.69-4 10.17t-11.28 3.49a19.77 19.77 0 0 1 -9-1.77zm12.32-21.05a6.75 6.75 0 0 0 1.4-3.84 15.32 15.32 0 0 0 .06-1.74 14.68 14.68 0 0 0 -.06-1.75 6.63 6.63 0 0 0 -1.4-3.86 4.53 4.53 0 0 0 -3.72-1.49 4.39 4.39 0 0 0 -3.72 1.54 7.52 7.52 0 0 0 -1.28 4.28l-.06 1.28a10.28 10.28 0 0 0 1.11 5.2c.73 1.26 2.05 1.89 3.95 1.89a4.48 4.48 0 0 0 3.71-1.51z"/><path d="m331 483.14a12.1 12.1 0 0 1 -4.74-3.19 5.53 5.53 0 0 1 -1.54-3.38 1.23 1.23 0 0 1 .43-1 1.47 1.47 0 0 1 1-.37h7a.76.76 0 0 1 .58.23q1 .64 1.11.75a11 11 0 0 0 2.06 1.25 5.4 5.4 0 0 0 2.3.44 4.94 4.94 0 0 0 2.59-.61 1.92 1.92 0 0 0 1-1.72 2.1 2.1 0 0 0 -.55-1.51 5.7 5.7 0 0 0 -2.09-1.13 32.6 32.6 0 0 0 -4.68-1.14q-10.06-2-10.06-9.3a7.75 7.75 0 0 1 1.54-4.56 10.66 10.66 0 0 1 4.53-3.52 17.58 17.58 0 0 1 7.19-1.34 18.92 18.92 0 0 1 7.35 1.31 12.84 12.84 0 0 1 4.74 3.14 5.27 5.27 0 0 1 1.63 3.34 1.33 1.33 0 0 1 -.38.93 1.19 1.19 0 0 1 -.9.41h-6.4a1.28 1.28 0 0 1 -.81-.23 9.8 9.8 0 0 1 -1.4-.88 15.58 15.58 0 0 0 -1.83-1.07 4.63 4.63 0 0 0 -2-.38 3.56 3.56 0 0 0 -2.27.64 2 2 0 0 0 -.82 1.63 2 2 0 0 0 .5 1.42 5 5 0 0 0 2 1.08 35.21 35.21 0 0 0 4.68 1.1c3.8.66 6.57 1.84 8.29 3.52a8.1 8.1 0 0 1 -1.28 12.85q-3.87 2.6-10.84 2.59a20.57 20.57 0 0 1 -7.93-1.3z"/><path d="m359.05 449a1.49 1.49 0 0 1 -.41-1.08v-5.41a1.43 1.43 0 0 1 .44-1.07 1.38 1.38 0 0 1 1-.44h7.27a1.47 1.47 0 0 1 1.08.44 1.46 1.46 0 0 1 .43 1.07v5.49a1.47 1.47 0 0 1 -1.51 1.51h-7.27a1.36 1.36 0 0 1 -1.03-.51zm0 34.42a1.36 1.36 0 0 1 -.44-1v-27.31a1.33 1.33 0 0 1 .44-1 1.43 1.43 0 0 1 1-.41h7.27a1.53 1.53 0 0 1 1.08.41 1.36 1.36 0 0 1 .43 1v27.34a1.36 1.36 0 0 1 -.43 1 1.53 1.53 0 0 1 -1.08.41h-7.27a1.38 1.38 0 0 1 -.97-.4z"/><path d="m375.94 483.46a1.4 1.4 0 0 1 -.44-1v-27.35a1.37 1.37 0 0 1 .44-1 1.45 1.45 0 0 1 1-.41h7.15a1.44 1.44 0 0 1 1.05.41 1.41 1.41 0 0 1 .4 1v2.21a11.64 11.64 0 0 1 4-3.08 13.26 13.26 0 0 1 5.67-1.16 11.5 11.5 0 0 1 5.91 1.51 10.46 10.46 0 0 1 4.07 4.48 15.83 15.83 0 0 1 1.48 7.15v16.23a1.45 1.45 0 0 1 -.41 1 1.37 1.37 0 0 1 -1 .44h-7.74a1.5 1.5 0 0 1 -1.07-.41 1.37 1.37 0 0 1 -.44-1v-15.91a5.84 5.84 0 0 0 -1.25-4 4.63 4.63 0 0 0 -3.63-1.4 4.78 4.78 0 0 0 -3.67 1.43 5.6 5.6 0 0 0 -1.34 4v15.88a1.44 1.44 0 0 1 -.4 1 1.37 1.37 0 0 1 -1.05.44h-7.67a1.4 1.4 0 0 1 -1.06-.46z"/><path d="m416.41 481q-4.1-3.51-4.39-9.8l-.06-2.32.06-2.39a13 13 0 0 1 4.36-9.82q4.14-3.56 10.76-3.55a18.14 18.14 0 0 1 8.49 1.8 13.77 13.77 0 0 1 5.12 4.28 9.2 9.2 0 0 1 1.8 4.5 1.25 1.25 0 0 1 -.41 1.08 1.55 1.55 0 0 1 -1.1.44h-7.79a1.46 1.46 0 0 1 -1-.3 2.51 2.51 0 0 1 -.64-.93 5.29 5.29 0 0 0 -1.66-2.38 4.25 4.25 0 0 0 -2.59-.76q-4.47 0-4.65 5.94l-.06 2.21.06 1.91a7.25 7.25 0 0 0 1.22 4.45 4.18 4.18 0 0 0 3.43 1.43 4.26 4.26 0 0 0 2.64-.79 5.31 5.31 0 0 0 1.6-2.41 2.51 2.51 0 0 1 .64-.93 1.46 1.46 0 0 1 1-.29h7.76a1.55 1.55 0 0 1 1 .4 1.26 1.26 0 0 1 .46 1 8.49 8.49 0 0 1 -1.6 4.33 13.45 13.45 0 0 1 -5.09 4.45 17.89 17.89 0 0 1 -8.72 1.92q-6.54.01-10.64-3.47z"/><path d="m450.58 480.67q-4.08-3.81-4.19-11.08v-1.8q.23-6.92 4.3-10.81t11-3.9a16.55 16.55 0 0 1 8.46 2 12.66 12.66 0 0 1 5.18 5.52 18.08 18.08 0 0 1 1.71 8v1.45a1.48 1.48 0 0 1 -.43 1.08 1.46 1.46 0 0 1 -1.08.43h-18.44v.35a7.28 7.28 0 0 0 1.22 4.22 3.86 3.86 0 0 0 3.31 1.6 4 4 0 0 0 2.24-.56 7.49 7.49 0 0 0 1.6-1.42 3 3 0 0 1 .85-.73 2.75 2.75 0 0 1 1-.14h7.62a1.31 1.31 0 0 1 .9.32 1 1 0 0 1 .38.78 5.91 5.91 0 0 1 -1.72 3.55 13.55 13.55 0 0 1 -5 3.49 19 19 0 0 1 -7.76 1.45q-7.08.01-11.15-3.8zm15.75-15v-.12a6.78 6.78 0 0 0 -1.22-4.33 4.13 4.13 0 0 0 -3.43-1.54 4.06 4.06 0 0 0 -3.4 1.54 7 7 0 0 0 -1.19 4.33v.12z"/><path d="m506.25 483.46a1.39 1.39 0 0 1 -.43-1v-27.23l-7.79 6a1.64 1.64 0 0 1 -.88.29 1.51 1.51 0 0 1 -1.22-.7l-3.6-4.65a1.68 1.68 0 0 1 -.24-.87 1.52 1.52 0 0 1 .64-1.28l13.5-10.41a2.26 2.26 0 0 1 1.33-.41h7.68a1.52 1.52 0 0 1 1.07.41 1.34 1.34 0 0 1 .44 1v37.8a1.33 1.33 0 0 1 -.44 1 1.52 1.52 0 0 1 -1.07.41h-8a1.42 1.42 0 0 1 -.99-.36z"/><path d="m530.71 482.77a12.84 12.84 0 0 1 -5.79-4.63 11.7 11.7 0 0 1 -1.89-6.51 10.16 10.16 0 0 1 1.54-5.5 10.67 10.67 0 0 1 4-3.8 8.94 8.94 0 0 1 -4.13-8 10.38 10.38 0 0 1 4-8.43q4-3.25 11.77-3.26t11.66 3.23a10.35 10.35 0 0 1 3.93 8.4 9.3 9.3 0 0 1 -4 8.09 9.49 9.49 0 0 1 4.1 3.72 10.48 10.48 0 0 1 1.55 5.64 11.42 11.42 0 0 1 -1.92 6.48 13.12 13.12 0 0 1 -5.82 4.6 27.44 27.44 0 0 1 -19.07 0zm14-7.36a4.79 4.79 0 0 0 0-7.44 7.06 7.06 0 0 0 -4.51-1.4 7.18 7.18 0 0 0 -4.53 1.4 4.74 4.74 0 0 0 0 7.44 7.18 7.18 0 0 0 4.53 1.4 7.06 7.06 0 0 0 4.55-1.4zm-.45-17.41a3.9 3.9 0 0 0 1.57-3.17 4 4 0 0 0 -1.57-3.22 7.12 7.12 0 0 0 -8.06 0 4.15 4.15 0 0 0 0 6.45 6.19 6.19 0 0 0 4 1.25 6.5 6.5 0 0 0 4.06-1.31z"/><path d="m567.34 483.52a1.29 1.29 0 0 1 -.35-.9 1.11 1.11 0 0 1 .12-.52l13.37-29.78h-17.27a1.46 1.46 0 0 1 -1.07-.43 1.47 1.47 0 0 1 -.44-1.08v-6.1a1.5 1.5 0 0 1 1.51-1.52h27.51a1.49 1.49 0 0 1 1.08.44 1.46 1.46 0 0 1 .43 1.08v5.4a5.17 5.17 0 0 1 -.29 1.81c-.19.5-.31.79-.35.87l-13.37 29.71a2.18 2.18 0 0 1 -2.1 1.4h-7.91a1.15 1.15 0 0 1 -.87-.38z"/><path d="m603.19 482.71a13.71 13.71 0 0 1 -5.7-4.39 9.83 9.83 0 0 1 -1.94-5.24 1.13 1.13 0 0 1 .37-.87 1.32 1.32 0 0 1 .9-.35h8a2 2 0 0 1 1.1.26 2.46 2.46 0 0 1 .76.85c.74 1.9 2.77 2.85 6.11 2.85a6.63 6.63 0 0 0 4.42-1.34 4.51 4.51 0 0 0 1.57-3.61c0-2.9-1.94-4.36-5.82-4.36h-6.51a1.47 1.47 0 0 1 -1.45-1.51v-3.43a2.21 2.21 0 0 1 1-2l9.37-7.67h-16.1a1.5 1.5 0 0 1 -1.46-1.46v-5.75a1.53 1.53 0 0 1 .41-1.08 1.37 1.37 0 0 1 1-.44h27.1a1.37 1.37 0 0 1 1 .44 1.53 1.53 0 0 1 .41 1.08v5.17a2.26 2.26 0 0 1 -.93 1.92l-8.61 7.85.41.12a15.08 15.08 0 0 1 8.32 3.6c2 1.9 3.08 4.64 3.08 8.2a10.94 10.94 0 0 1 -2.24 6.83 14.16 14.16 0 0 1 -6.16 4.51 23.86 23.86 0 0 1 -8.93 1.57 23 23 0 0 1 -9.48-1.75z"/></g></svg>